#!OML:ASF H:\ManfredObstacles\Project 1\Capture day 2\Session 1\male.ASF
:FULLY-SPECIFIED
:DEGREES
787
root 2.11667 15.8006 -16.7747 -173.976 -7.59284 173.174
lowerback -6.05028 -3.55693 -9.74017
upperback 0.871228 -4.04818 -0.211994
thorax 4.984 -2.28916 4.79209
lowerneck -34.4899 -0.593669 0.883622
upperneck 39.0072 0.111045 0.820126
head 21.7905 0.95657 0.572598
rclavicle 4.29623e-014 2.20651e-014
rhumerus -49.4825 -31.417 -60.8217
rradius 20.6085
rwrist 44.4049
rhand -0.610092 -5.69831
rfingers 7.12502
rthumb 25.0059 -34.0817
lclavicle 4.29623e-014 2.20651e-014
lhumerus -19.5942 -6.15449 91.8755
lradius 35.1474
lwrist -37.4302
lhand 1.16579 5.79815
lfingers 7.12502
lthumb 26.7065 33.9336
rfemur -31.6632 8.02347 8.9035
rtibia 22.9642
rfoot -0.564112 -18.9824
rtoes -20.748
lfemur 11.8703 -9.99546 -28.7758
ltibia 12.1416
lfoot 0.834215 10.5764
ltoes -13.751
788
root 2.14243 15.8033 -16.9148 -174.076 -7.57526 173.597
lowerback -6.04663 -3.53195 -9.25916
upperback 0.784068 -4.0532 -0.0832565
thorax 4.86397 -2.26951 4.66373
lowerneck -34.4975 -0.596637 0.86001
upperneck 39.0089 0.146273 0.762842
head 21.7936 0.955956 0.555888
rclavicle 4.60932e-014 -8.74653e-015
rhumerus -49.3439 -31.2667 -61.0341
rradius 20.6218
rwrist 44.2694
rhand -0.627471 -5.6945
rfingers 7.12502
rthumb 24.9892 -34.0802
lclavicle 4.60932e-014 -8.74653e-015
lhumerus -19.966 -5.48265 91.8737
lradius 34.2969
lwrist -37.9988
lhand 0.969344 5.77149
lfingers 7.12502
lthumb 26.5185 33.9355
rfemur -31.3889 7.44243 9.86594
rtibia 23.3278
rfoot 0.356036 -17.7765
rtoes -19.9056
lfemur 11.8484 -10.22 -28.3352
ltibia 13.2776
lfoot 1.23809 10.6536
ltoes -14.5478
789
root 2.16735 15.808 -17.0537 -174.175 -7.48126 174.105
lowerback -6.07123 -3.48875 -8.70525
upperback 0.704623 -4.03632 0.0798869
thorax 4.7624 -2.23906 4.53129
lowerneck -34.5256 -0.592891 0.831076
upperneck 38.9977 0.192671 0.699027
head 21.7933 0.955446 0.538858
rclavicle 2.21148e-014 7.55382e-015
rhumerus -49.1269 -31.1036 -61.2594
rradius 20.6402
rwrist 44.1329
rhand -0.63257 -5.68263
rfingers 7.12502
rthumb 24.9843 -34.069
lclavicle 2.21148e-014 7.55382e-015
lhumerus -20.3081 -4.59821 91.8351
lradius 33.3
lwrist -38.7912
lhand 0.75895 5.70281
lfingers 7.12502
lthumb 26.3171 33.8971
rfemur -31.1022 6.95375 10.9131
rtibia 23.6792
rfoot 0.990973 -16.67
rtoes -18.9177
lfemur 11.7399 -10.3384 -27.806
ltibia 14.5325
lfoot 1.64677 10.6692
ltoes -15.05
790
root 2.19187 15.8143 -17.1921 -174.271 -7.32095 174.646
lowerback -6.1236 -3.43481 -8.13661
upperback 0.629697 -4.00478 0.261638
thorax 4.68011 -2.2031 4.40945
lowerneck -34.5332 -0.571652 0.832945
upperneck 38.9788 0.25938 0.61077
head 21.7819 0.963243 0.508804
rclavicle -1.10325e-014 -1.39149e-014
rhumerus -48.8524 -30.9339 -61.4832
rradius 20.6608
rwrist 44.023
rhand -0.610112 -5.6541
rfingers 7.12502
rthumb 25.0059 -34.0375
lclavicle -1.10325e-014 -1.39149e-014
lhumerus -20.6455 -3.48559 91.7406
lradius 32.1932
lwrist -39.7928
lhand 0.592227 5.61645
lfingers 7.12502
lthumb 26.1575 33.8345
rfemur -30.8039 6.57605 11.9771
rtibia 24.0213
rfoot 1.34849 -15.63
rtoes -17.9593
lfemur 11.5831 -10.3572 -27.2362
ltibia 15.8376
lfoot 2.06802 10.6112
ltoes -15.1336
791
root 2.21665 15.8221 -17.3294 -174.357 -7.11219 175.168
lowerback -6.19758 -3.37858 -7.61335
upperback 0.566908 -3.96643 0.444958
thorax 4.626 -2.16747 4.31297
lowerneck -34.5573 -0.515241 0.884803
upperneck 38.9169 0.351103 0.493268
head 21.7453 0.979385 0.45936
rclavicle 2.45499e-014 -1.31198e-014
rhumerus -48.5026 -30.7508 -61.7402
rradius 20.7051
rwrist 43.9061
rhand -0.564532 -5.60841
rfingers 7.12502
rthumb 25.0495 -33.9857
lclavicle 2.45499e-014 -1.31198e-014
lhumerus -20.9637 -2.14376 91.5729
lradius 30.9916
lwrist -40.9827
lhand 0.463009 5.51291
lfingers 7.12502
lthumb 26.0338 33.7492
rfemur -30.5045 6.29351 12.9936
rtibia 24.3567
rfoot 1.48524 -14.6231
rtoes -17.0483
lfemur 11.3999 -10.2747 -26.6712
ltibia 17.1342
lfoot 2.50663 10.4554
ltoes -14.9864
792
root 2.24213 15.8315 -17.4657 -174.429 -6.88849 175.616
lowerback -6.27827 -3.33357 -7.19524
upperback 0.514539 -3.93624 0.617141
thorax 4.59504 -2.14051 4.26119
lowerneck -34.5589 -0.453323 0.940146
upperneck 38.8421 0.445087 0.383039
head 21.694 0.99772 0.413437
rclavicle -4.39811e-014 -1.98785e-015
rhumerus -48.1019 -30.5573 -62.0268
rradius 20.7935
rwrist 43.774
rhand -0.496286 -5.54451
rfingers 7.12502
rthumb 25.1149 -33.9127
lclavicle -4.39811e-014 -1.98785e-015
lhumerus -21.2703 -0.567161 91.3258
lradius 29.7223
lwrist -42.3026
lhand 0.398257 5.40997
lfingers 7.12502
lthumb 25.9718 33.6554
rfemur -30.1972 6.04464 13.9138
rtibia 24.684
rfoot 1.49183 -13.6424
rtoes -16.1677
lfemur 11.2068 -10.1103 -26.1582
ltibia 18.3816
lfoot 2.96353 10.1837
ltoes -14.7565
793
root 2.2683 15.8428 -17.601 -174.481 -6.68485 175.966
lowerback -6.3709 -3.31625 -6.90341
upperback 0.47402 -3.93345 0.768183
thorax 4.59459 -2.13203 4.25313
lowerneck -34.5599 -0.351295 1.06298
upperneck 38.7202 0.565414 0.235875
head 21.6108 1.02681 0.341667
rclavicle 2.32081e-014 3.57812e-015
rhumerus -47.6319 -30.315 -62.3879
rradius 20.9349
rwrist 43.6005
rhand -0.407558 -5.47544
rfingers 7.12502
rthumb 25.1999 -33.8317
lclavicle 2.32081e-014 3.57812e-015
lhumerus -21.57 1.23575 90.9862
lradius 28.4073
lwrist -43.695
lhand 0.397776 5.33196
lfingers 7.12502
lthumb 25.9713 33.5774
rfemur -29.8754 5.73747 14.732
rtibia 24.9967
rfoot 1.44628 -12.6343
rtoes -15.0696
lfemur 11.0098 -9.88488 -25.7152
ltibia 19.5543
lfoot 3.44035 9.79351
ltoes -14.492
794
root 2.29573 15.8561 -17.7353 -174.508 -6.53423 176.231
lowerback -6.46579 -3.32693 -6.72079
upperback 0.432233 -3.96038 0.89894
thorax 4.60426 -2.14149 4.28105
lowerneck -34.5587 -0.258222 1.16359
upperneck 38.5816 0.664698 0.123589
head 21.5162 1.04915 0.286034
rclavicle 5.54112e-015 1.59028e-015
rhumerus -47.1339 -30.0352 -62.804
rradius 21.142
rwrist 43.3623
rhand -0.304285 -5.39788
rfingers 7.12502
rthumb 25.2989 -33.7402
lclavicle 5.54112e-015 1.59028e-015
lhumerus -21.8814 3.22422 90.5542
lradius 27.063
lwrist -45.1302
lhand 0.49092 5.28996
lfingers 7.12502
lthumb 26.0605 33.5223
rfemur -29.541 5.34447 15.465
rtibia 25.2876
rfoot 1.401 -11.7664
rtoes -13.9984
lfemur 10.8015 -9.62089 -25.3173
ltibia 20.6388
lfoot 3.93749 9.25302
ltoes -14.1044
795
root 2.3251 15.8718 -17.869 -174.503 -6.46102 176.417
lowerback -6.57707 -3.37297 -6.64408
upperback 0.39219 -4.02534 1.00978
thorax 4.63606 -2.17315 4.34163
lowerneck -34.5942 -0.177979 1.22769
upperneck 38.4605 0.738643 0.0701362
head 21.4439 1.06609 0.261558
rclavicle 1.61264e-014 1.23246e-014
rhumerus -46.5938 -29.6952 -63.2999
rradius 21.4024
rwrist 43.0373
rhand -0.204438 -5.33576
rfingers 7.12502
rthumb 25.3945 -33.6645
lclavicle 1.61264e-014 1.23246e-014
lhumerus -22.215 5.41961 90.0084
lradius 25.7089
lwrist -46.7003
lhand 0.640981 5.25246
lfingers 7.12502
lthumb 26.2042 33.4636
rfemur -29.1949 4.8819 16.1125
rtibia 25.5438
rfoot 1.34479 -11.0725
rtoes -13.0275
lfemur 10.5703 -9.33768 -24.9483
ltibia 21.6399
lfoot 4.46621 8.56785
ltoes -13.6801
796
root 2.35655 15.8895 -18.0022 -174.472 -6.47197 176.539
lowerback -6.69734 -3.45142 -6.65854
upperback 0.353056 -4.12564 1.10311
thorax 4.684 -2.22502 4.42979
lowerneck -34.6338 -0.091867 1.31777
upperneck 38.3239 0.800792 0.0174199
head 21.3629 1.08189 0.229319
rclavicle -8.9304e-014 -9.54166e-015
rhumerus -46.0263 -29.2951 -63.8679
rradius 21.7187
rwrist 42.6141
rhand -0.129625 -5.29887
rfingers 7.12502
rthumb 25.4662 -33.6174
lclavicle -8.9304e-014 -9.54166e-015
lhumerus -22.5734 7.79953 89.3395
lradius 24.3521
lwrist -48.4253
lhand 0.848749 5.22131
lfingers 7.12502
lthumb 26.4031 33.4027
rfemur -28.832 4.37657 16.6808
rtibia 25.7569
rfoot 1.27936 -10.5309
rtoes -12.0066
lfemur 10.3187 -9.05354 -24.5976
ltibia 22.5687
lfoot 5.02908 7.79214
ltoes -13.2449
797
root 2.39056 15.9083 -18.1346 -174.42 -6.55399 176.624
lowerback -6.82456 -3.55544 -6.73441
upperback 0.314794 -4.25428 1.18211
thorax 4.74446 -2.29275 4.53295
lowerneck -34.6932 -0.0356982 1.35869
upperneck 38.2079 0.817764 0.0310372
head 21.3006 1.08514 0.228792
rclavicle -4.01545e-014 2.18663e-014
rhumerus -45.4468 -28.8503 -64.4975
rradius 22.0825
rwrist 42.094
rhand -0.104775 -5.27368
rfingers 7.12502
rthumb 25.49 -33.5888
lclavicle -4.01545e-014 2.18663e-014
lhumerus -22.9611 10.3628 88.5209
lradius 22.9891
lwrist -50.3613
lhand 1.09168 5.17452
lfingers 7.12502
lthumb 26.6356 33.3208
rfemur -28.4561 3.90087 17.1857
rtibia 25.9243
rfoot 1.18248 -10.127
rtoes -10.8952
lfemur 10.0405 -8.76026 -24.2342
ltibia 23.4409
lfoot 5.62911 6.94959
ltoes -12.8004
